<?xml version="1.0" encoding="utf-8"?>
<!-- Generator: Adobe Illustrator 24.0.0, SVG Export Plug-In . SVG Version: 6.00 Build 0)  -->
<svg version="1.1" id="Layer_1" xmlns="http://www.w3.org/2000/svg" xmlns:xlink="http://www.w3.org/1999/xlink" x="0px" y="0px"
	 viewBox="0 0 256 256" enable-background="new 0 0 256 256" xml:space="preserve">
<g>
	<g>
		<path fill="#CECECE" d="M32.035,189.343c-7.535,0-13.665-6.13-13.665-13.665V51.902c0-7.535,6.13-13.665,13.665-13.665h191.931
			c7.535,0,13.665,6.13,13.665,13.665v123.776c0,7.535-6.13,13.665-13.665,13.665H32.035z"/>
		<g>
			<path fill="#E2E2E2" d="M223.965,38.237h-14.667c7.534,0,13.665,6.13,13.665,13.665v123.776c0,7.534-6.13,13.665-13.665,13.665
				h14.667c7.535,0,13.665-6.13,13.665-13.665V51.902C237.63,44.367,231.5,38.237,223.965,38.237z"/>
		</g>
		<g>
			<path fill="#AFAFAF" d="M32.035,38.237h14.667c-7.534,0-13.665,6.13-13.665,13.665v123.776c0,7.534,6.13,13.665,13.665,13.665
				H32.035c-7.535,0-13.665-6.13-13.665-13.665V51.902C18.37,44.367,24.5,38.237,32.035,38.237z"/>
		</g>
		<path fill="#63BCE7" d="M229.221,51.926v123.728c0,2.916-2.364,5.28-5.28,5.28H32.059c-2.916,0-5.28-2.364-5.28-5.28V51.926
			c0-2.916,2.364-5.28,5.28-5.28h191.882C226.857,46.646,229.221,49.01,229.221,51.926z"/>
		<g>
			<path fill="#63E2E7" d="M223.941,46.646h-14.667c2.916,0,5.28,2.364,5.28,5.28v123.728c0,2.916-2.364,5.28-5.28,5.28h14.667
				c2.916,0,5.28-2.364,5.28-5.28V51.926C229.221,49.01,226.857,46.646,223.941,46.646z"/>
		</g>
		<g>
			<path fill="#6377E7" d="M32.059,46.646h14.667c-2.916,0-5.28,2.364-5.28,5.28v123.728c0,2.916,2.364,5.28,5.28,5.28H32.059
				c-2.916,0-5.28-2.364-5.28-5.28V51.926C26.779,49.01,29.143,46.646,32.059,46.646z"/>
		</g>
		<path fill="#CECECE" d="M128,189.343H8.667l3.053,7.024c2.751,6.329,8.995,10.423,15.896,10.423H128h100.385
			c6.901,0,13.145-4.094,15.896-10.423l3.053-7.024H128z"/>
		<g>
			<path fill="#E2E2E2" d="M232.667,189.343l-3.053,7.024c-2.751,6.329-8.995,10.423-15.896,10.423h14.667
				c6.901,0,13.145-4.094,15.896-10.423l3.053-7.024H232.667z"/>
		</g>
		<g>
			<path fill="#AFAFAF" d="M23.333,189.343l3.053,7.024c2.751,6.329,8.995,10.423,15.896,10.423H27.615
				c-6.901,0-13.145-4.094-15.896-10.423l-3.053-7.024H23.333z"/>
		</g>
		<path fill="#707070" d="M82.442,189.343l4.22,5.388c1.649,2.106,4.175,3.336,6.85,3.336h68.975c2.675,0,5.201-1.23,6.85-3.336
			l4.221-5.388H82.442z"/>
	</g>
	<g>
		<circle fill="#F8AF23" cx="128.037" cy="112.55" r="45.598"/>
		<circle fill="#CECECE" cx="128.037" cy="112.55" r="32.539"/>
		<path fill="#F46275" d="M218.434,202.946L218.434,202.946c-5.125,5.125-13.435,5.125-18.56,0l-25.235-25.235
			c-5.125-5.125-5.125-13.435,0-18.56l0,0c5.125-5.125,13.435-5.125,18.56,0l25.235,25.235
			C223.559,189.511,223.559,197.821,218.434,202.946z"/>
		<g>
			<path fill="#3F3679" d="M245.656,196.965l3.053-7.024c0.202-0.463,0.156-0.998-0.121-1.42c-0.277-0.422-0.749-0.677-1.254-0.677
				h-14.352c3.722-2.766,6.149-7.182,6.149-12.165V51.902c0-8.362-6.803-15.165-15.165-15.165H32.035
				c-8.362,0-15.165,6.803-15.165,15.165v123.776c0,4.983,2.427,9.399,6.149,12.165H8.667c-0.505,0-0.977,0.255-1.254,0.678
				c-0.277,0.422-0.323,0.957-0.121,1.42l3.053,7.024c1.517,3.491,4.013,6.351,7.08,8.325H9.32c-0.829,0-1.5,0.671-1.5,1.5
				s0.671,1.5,1.5,1.5h18.295h200.77h18.295c0.829,0,1.5-0.671,1.5-1.5s-0.671-1.5-1.5-1.5h-8.104
				C241.644,203.315,244.139,200.456,245.656,196.965z M245.046,190.843l-2.141,4.926c-0.118,0.272-0.25,0.535-0.382,0.798h-19.032
				c0.189-0.945,0.287-1.915,0.287-2.9c0-0.959-0.094-1.903-0.273-2.823h0.461H245.046z M209.154,205.29
				c-3.105,0-6.024-1.209-8.22-3.405l-25.235-25.234c-4.532-4.532-4.532-11.907,0-16.439c2.267-2.266,5.243-3.399,8.22-3.399
				c2.976,0,5.954,1.133,8.219,3.399l25.235,25.235c2.195,2.196,3.405,5.115,3.405,8.22s-1.209,6.024-3.405,8.219
				S212.259,205.29,209.154,205.29z M194.259,158.09c-5.344-5.345-13.828-5.679-19.566-1.006l-12.318-12.318
				c17.311-18.437,16.974-47.511-1.034-65.519c-8.896-8.896-20.723-13.795-33.303-13.795s-24.408,4.899-33.304,13.795
				c-18.364,18.363-18.364,48.243,0,66.606c9.182,9.182,21.243,13.772,33.304,13.772c11.594,0,23.18-4.255,32.216-12.739
				l12.318,12.318c-4.673,5.738-4.337,14.223,1.006,19.567l0.662,0.662H32.059c-2.084,0-3.78-1.696-3.78-3.78V51.926
				c0-2.084,1.696-3.78,3.78-3.78h191.882c2.084,0,3.78,1.696,3.78,3.78v123.728c0,2.084-1.696,3.78-3.78,3.78h-8.338
				L194.259,158.09z M96.855,143.732c-17.194-17.194-17.194-45.17,0-62.364c8.33-8.329,19.403-12.916,31.183-12.916
				c11.779,0,22.853,4.587,31.182,12.916c17.194,17.194,17.194,45.17,0,62.364C142.025,160.925,114.049,160.925,96.855,143.732z
				 M19.87,175.678V51.902c0-6.708,5.457-12.165,12.165-12.165h191.931c6.708,0,12.165,5.457,12.165,12.165v123.776
				c0,6.708-5.457,12.165-12.165,12.165h-1.399c-0.723-1.663-1.751-3.197-3.072-4.518l-0.891-0.891h5.338
				c3.739,0,6.78-3.042,6.78-6.78V51.926c0-3.738-3.042-6.78-6.78-6.78H32.059c-3.739,0-6.78,3.042-6.78,6.78v123.728
				c0,3.739,3.042,6.78,6.78,6.78H177.24l5.409,5.409h-9.091H82.442H32.035C25.327,187.843,19.87,182.386,19.87,175.678z
				 M170.478,190.843l-2.321,2.963c-1.375,1.754-3.441,2.76-5.669,2.76H93.513c-2.229,0-4.295-1.006-5.669-2.76l-2.321-2.963
				H170.478z M27.615,205.29c-4.787,0-9.22-2.157-12.18-5.724h29.14c0.829,0,1.5-0.671,1.5-1.5s-0.671-1.5-1.5-1.5H13.478
				c-0.132-0.263-0.264-0.526-0.382-0.798l-2.141-4.926h21.081h49.677l3.77,4.813c1.947,2.485,4.874,3.911,8.031,3.911h68.975
				c3.157,0,6.084-1.425,8.031-3.911l3.77-4.813h11.361l5.724,5.724h-0.593c-0.829,0-1.5,0.671-1.5,1.5s0.671,1.5,1.5,1.5h3.593
				l4.44,4.44c0.469,0.469,0.972,0.888,1.49,1.284H27.615z M228.385,205.29h-10.38c0.518-0.396,1.021-0.815,1.49-1.284
				c1.3-1.3,2.314-2.807,3.035-4.44h18.036C237.605,203.133,233.172,205.29,228.385,205.29z"/>
			<path fill="#3F3679" d="M65.22,196.566H54.845c-0.829,0-1.5,0.671-1.5,1.5s0.671,1.5,1.5,1.5H65.22c0.829,0,1.5-0.671,1.5-1.5
				S66.048,196.566,65.22,196.566z"/>
			<path fill="#3F3679" d="M27.323,216.263H9.32c-0.829,0-1.5,0.671-1.5,1.5s0.671,1.5,1.5,1.5h18.003c0.829,0,1.5-0.671,1.5-1.5
				S28.152,216.263,27.323,216.263z"/>
			<path fill="#3F3679" d="M246.68,216.263h-18.003c-0.829,0-1.5,0.671-1.5,1.5s0.671,1.5,1.5,1.5h18.003c0.829,0,1.5-0.671,1.5-1.5
				S247.509,216.263,246.68,216.263z"/>
			<path fill="#3F3679" d="M218.479,216.263H37.521c-0.829,0-1.5,0.671-1.5,1.5s0.671,1.5,1.5,1.5h180.959
				c0.829,0,1.5-0.671,1.5-1.5S219.308,216.263,218.479,216.263z"/>
			<path fill="#3F3679" d="M152.106,88.481c-13.271-13.271-34.866-13.271-48.138,0c-13.272,13.271-13.272,34.866,0,48.138
				c6.636,6.636,15.352,9.954,24.069,9.954s17.433-3.318,24.069-9.954C165.378,123.347,165.378,101.752,152.106,88.481z
				 M149.985,134.498c-12.103,12.102-31.793,12.102-43.896,0c-12.102-12.102-12.102-31.793,0-43.896
				c6.051-6.051,14-9.076,21.948-9.076s15.896,3.025,21.948,9.076C162.087,102.704,162.087,122.396,149.985,134.498z"/>
		</g>
	</g>
	<g>
		<path fill="#3F3679" d="M111.729,111.185c0-1.228-0.532-1.842-1.595-1.842c-0.599,0-1.037,0.21-1.314,0.629
			c-0.244,0.369-0.392,0.917-0.444,1.644c-0.012,0.171-0.149,0.31-0.32,0.31h-3.095c-0.19,0-0.345-0.167-0.329-0.356
			c0.142-1.755,0.719-3.088,1.729-4.001c1.078-0.973,2.44-1.459,4.087-1.459c1.722,0,3.021,0.434,3.896,1.302
			c0.876,0.869,1.314,1.999,1.314,3.392c0,1.542-0.592,3.051-1.774,4.525c-0.962,1.2-2.078,2.249-3.348,3.147
			c-0.262,0.185-0.143,0.593,0.178,0.593h4.867c0.179,0,0.324,0.145,0.324,0.324v2.45c0,0.179-0.145,0.324-0.324,0.324h-10.67
			c-0.179,0-0.324-0.145-0.324-0.324v-2.386c0-0.104,0.053-0.203,0.138-0.263C109.394,115.842,111.729,113.172,111.729,111.185z"/>
		<path fill="#3F3679" d="M117.523,119.103v-2.781c0-0.069,0.022-0.136,0.062-0.191l7.095-9.73c0.061-0.084,0.159-0.133,0.262-0.133
			h3.643c0.179,0,0.324,0.145,0.324,0.324v9.165c0,0.179,0.145,0.324,0.324,0.324h1.26c0.179,0,0.324,0.145,0.324,0.324v2.697
			c0,0.179-0.145,0.324-0.324,0.324h-1.26c-0.179,0-0.324,0.145-0.324,0.324v2.271c0,0.179-0.145,0.324-0.324,0.324h-3.236
			c-0.179,0-0.324-0.145-0.324-0.324v-2.271c0-0.179-0.145-0.324-0.324-0.324h-6.852
			C117.668,119.427,117.523,119.282,117.523,119.103z M124.752,111.519l-2.946,4.046c-0.156,0.214-0.003,0.515,0.262,0.515h2.946
			c0.179,0,0.324-0.145,0.324-0.324v-4.046C125.339,111.396,124.937,111.265,124.752,111.519z"/>
		<path fill="#3F3679" d="M140.831,101.41l-5.889,24.91c-0.035,0.146-0.165,0.25-0.316,0.25h-3.039
			c-0.209,0-0.364-0.195-0.316-0.399l5.888-24.91c0.035-0.146,0.165-0.25,0.316-0.25h3.039
			C140.725,101.011,140.879,101.206,140.831,101.41z"/>
		<path fill="#3F3679" d="M151.387,109.225l-5.571,12.926c-0.051,0.119-0.168,0.196-0.298,0.196h-3.259
			c-0.236,0-0.393-0.243-0.296-0.458l5.336-11.818c0.097-0.215-0.06-0.458-0.296-0.458h-5.911c-0.179,0-0.324-0.145-0.324-0.324
			v-2.652c0-0.179,0.145-0.324,0.324-0.324h9.997c0.179,0,0.324,0.145,0.324,0.324v2.461
			C151.413,109.141,151.404,109.184,151.387,109.225z"/>
	</g>
</g>
</svg>
