<?xml version="1.0" encoding="utf-8"?>
<!-- Generator: Adobe Illustrator 24.3.0, SVG Export Plug-In . SVG Version: 6.00 Build 0)  -->
<svg version="1.1" id="Layer_1" xmlns="http://www.w3.org/2000/svg" xmlns:xlink="http://www.w3.org/1999/xlink" x="0px" y="0px"
	 viewBox="0 0 80 80" enable-background="new 0 0 80 80" xml:space="preserve">
<path fill="#FFCC43" d="M41.996,12.852c0,0,5.972,4.463,6.472,16.463l-5.5,0.833l10.167,15.667l11.833-15l-4.5-1
	C60.469,29.815,60.524,17.722,41.996,12.852z"/>
<path fill="#667BBC" d="M26.636,12.648c0,0-12.833,6.5-12.833,14.333s7.666,22.833,12.166,31s9.594,12.079,17.834,10.666
	c5.833-1,8.667-4,8.667-4l-2.833-7.333l-4.119-4.899l-6.548-0.934l-4.333-3l-6-13.667l3.5-7.667v-4.333L26.636,12.648z"/>
<g>
	<path fill="#131731" d="M25.898,60.848L13.876,36.607c-1.22-2.454-1.797-5.067-1.797-7.636l0,0
		c-0.002-6.331,3.512-12.425,9.567-15.43l0,0l6.02-2.987l0.684,1.296c1.451,2.755,2.894,5.63,3.989,8.118l0,0
		c1.085,2.535,1.865,4.488,1.908,6.124l0,0c-0.002,0.287-0.026,0.589-0.141,0.935l0,0c-0.565,1.626-1.624,2.991-2.466,4.341l0,0
		c-0.862,1.34-1.451,2.591-1.433,3.59l0,0c0.002,0.432,0.086,0.844,0.319,1.318l0,0l5.938,11.969
		c0.735,1.363,1.395,1.552,3.083,1.809l0,0c1.632,0.203,3.927,0.099,6.448,0.938l0,0l-0.478,1.423l0.478-1.423
		c0.955,0.352,1.558,0.977,2.245,1.757l0,0c0.669,0.79,1.351,1.776,2.064,2.928l0,0c1.423,2.301,2.962,5.258,4.478,8.397l0,0
		l0.645,1.336l-6.466,3.206c-2.454,1.216-5.065,1.794-7.634,1.794l0,0C34.996,70.416,28.903,66.904,25.898,60.848L25.898,60.848z
		 M22.979,16.229c-5.002,2.48-7.897,7.511-7.899,12.743l0,0c0,2.121,0.474,4.269,1.483,6.303l0,0l12.021,24.241
		c2.48,5.002,7.509,7.897,12.743,7.899l0,0c2.119,0,4.267-0.477,6.301-1.483l0,0l3.801-1.884c-1.087-2.2-2.169-4.254-3.17-5.95l0,0
		c-1.182-2.028-2.325-3.567-2.966-4.08l0,0c-0.165-0.139-0.249-0.178-0.257-0.181l0,0l0,0.002c-1.896-0.649-3.847-0.585-5.835-0.802
		l0,0c-1.929-0.163-4.259-0.981-5.425-3.455l0,0L27.839,37.61c-0.436-0.873-0.635-1.785-0.631-2.651l0,0
		c0.016-2.056,0.985-3.734,1.897-5.194l0,0c0.912-1.422,1.824-2.71,2.14-3.639l0,0c0-0.008,0-0.019,0-0.033l0,0
		c0.043-0.498-0.599-2.581-1.654-4.916l0,0c-0.879-2.004-2.023-4.326-3.218-6.631l0,0L22.979,16.229L22.979,16.229z"/>
</g>
<g>
	<path fill="#131731" d="M40.012,28.764h6.974c-0.53-6.052-3.618-11.356-5.223-13.69l0,0c-0.575-0.842-0.927-1.271-0.927-1.271l0,0
		l-2.743-3.353l4.229,0.939c9.339,2.059,14.401,6.705,16.971,10.877l0,0c1.659,2.679,2.321,5.126,2.584,6.574l0,0l6.325,0.37
		L53.959,49.153L40.012,28.764L40.012,28.764z M54.011,43.917l8.593-12.029l-3.494-0.207l-0.057-1.354
		c-0.004,0-0.004-0.123-0.048-0.446l0,0c-0.044-0.324-0.127-0.808-0.278-1.407l0,0c-0.303-1.198-0.884-2.855-1.984-4.626l0,0
		c-1.854-2.962-5.115-6.293-11.212-8.435l0,0c1.951,3.306,4.415,8.661,4.531,14.831l0,0l0.022,1.522h-4.387L54.011,43.917
		L54.011,43.917z M41.671,14.316l0.326-1.464L41.671,14.316L41.671,14.316z"/>
</g>
</svg>
